<mxfile host="65bd71144e">
    <diagram id="oPUDNA8igev5Rzl0jLBP" name="Page-1">
        <mxGraphModel dx="1323" dy="597" grid="1" gridSize="10" guides="1" tooltips="1" connect="1" arrows="1" fold="1" page="1" pageScale="1" pageWidth="850" pageHeight="1100" math="0" shadow="0">
            <root>
                <mxCell id="0"/>
                <mxCell id="1" parent="0"/>
                <mxCell id="2" value="Bible Verse Text Reader" style="strokeWidth=1;shadow=0;dashed=0;align=center;html=1;shape=mxgraph.mockup.containers.window;align=left;verticalAlign=top;spacingLeft=8;strokeColor2=#008cff;strokeColor3=#c4c4c4;fontColor=#666666;mainText=;fontSize=17;labelBackgroundColor=none;whiteSpace=wrap;" vertex="1" parent="1">
                    <mxGeometry x="150" y="110" width="550" height="380" as="geometry"/>
                </mxCell>
                <mxCell id="3" value="Entry" style="rounded=1;whiteSpace=wrap;html=1;" vertex="1" parent="1">
                    <mxGeometry x="279" y="260" width="292" height="30" as="geometry"/>
                </mxCell>
                <mxCell id="4" value="Please input your bible verse:" style="text;html=1;align=center;verticalAlign=middle;whiteSpace=wrap;rounded=0;" vertex="1" parent="1">
                    <mxGeometry x="338" y="230" width="175" height="30" as="geometry"/>
                </mxCell>
                <mxCell id="5" value="Bible Verse Text Reader" style="text;strokeColor=none;fillColor=none;html=1;fontSize=24;fontStyle=1;verticalAlign=middle;align=center;" vertex="1" parent="1">
                    <mxGeometry x="375.5" y="180" width="100" height="40" as="geometry"/>
                </mxCell>
                <mxCell id="6" value="Process" style="strokeWidth=1;shadow=0;dashed=0;align=center;html=1;shape=mxgraph.mockup.buttons.button;strokeColor=#666666;fontColor=#ffffff;mainText=;buttonStyle=round;fontSize=17;fontStyle=1;fillColor=#008cff;whiteSpace=wrap;" vertex="1" parent="1">
                    <mxGeometry x="350.5" y="300" width="150" height="40" as="geometry"/>
                </mxCell>
                <mxCell id="7" value="Read bible verse from text file" style="text;html=1;align=center;verticalAlign=middle;whiteSpace=wrap;rounded=0;" vertex="1" parent="1">
                    <mxGeometry x="338" y="390" width="175" height="30" as="geometry"/>
                </mxCell>
                <mxCell id="9" value="" style="line;strokeWidth=2;html=1;" vertex="1" parent="1">
                    <mxGeometry x="100" y="220" width="630" height="10" as="geometry"/>
                </mxCell>
                <mxCell id="10" value="" style="line;strokeWidth=2;html=1;" vertex="1" parent="1">
                    <mxGeometry x="90" y="250" width="630" height="10" as="geometry"/>
                </mxCell>
                <mxCell id="11" value="" style="line;strokeWidth=2;html=1;" vertex="1" parent="1">
                    <mxGeometry x="90" y="290" width="630" height="10" as="geometry"/>
                </mxCell>
                <mxCell id="12" value="" style="line;strokeWidth=2;html=1;" vertex="1" parent="1">
                    <mxGeometry x="88" y="370" width="630" height="11" as="geometry"/>
                </mxCell>
                <mxCell id="14" value="Row 0" style="text;html=1;align=center;verticalAlign=middle;whiteSpace=wrap;rounded=0;" vertex="1" parent="1">
                    <mxGeometry x="70" y="170" width="60" height="30" as="geometry"/>
                </mxCell>
                <mxCell id="15" value="Row 1" style="text;html=1;align=center;verticalAlign=middle;whiteSpace=wrap;rounded=0;" vertex="1" parent="1">
                    <mxGeometry x="70" y="226" width="60" height="30" as="geometry"/>
                </mxCell>
                <mxCell id="16" value="Row 2" style="text;html=1;align=center;verticalAlign=middle;whiteSpace=wrap;rounded=0;" vertex="1" parent="1">
                    <mxGeometry x="70" y="256" width="60" height="30" as="geometry"/>
                </mxCell>
                <mxCell id="17" value="Row 3" style="text;html=1;align=center;verticalAlign=middle;whiteSpace=wrap;rounded=0;" vertex="1" parent="1">
                    <mxGeometry x="60" y="320" width="60" height="30" as="geometry"/>
                </mxCell>
                <mxCell id="18" value="Row 4" style="text;html=1;align=center;verticalAlign=middle;whiteSpace=wrap;rounded=0;" vertex="1" parent="1">
                    <mxGeometry x="70" y="410" width="60" height="30" as="geometry"/>
                </mxCell>
            </root>
        </mxGraphModel>
    </diagram>
</mxfile>